<svg xmlns="http://www.w3.org/2000/svg" width="26.197" height="26.197" viewBox="0 0 26.197 26.197"><defs><style>.a{fill-rule:evenodd;}</style></defs><path d="M15.911,18.822A2.911,2.911,0,1,0,13,15.911,2.911,2.911,0,0,0,15.911,18.822Z" transform="translate(1.554 1.554)"/><path class="a" d="M7.366,3A4.366,4.366,0,0,0,3,7.366V24.831A4.366,4.366,0,0,0,7.366,29.2H24.831A4.366,4.366,0,0,0,29.2,24.831V7.366A4.366,4.366,0,0,0,24.831,3ZM4.911,24.831V8.822H27.287v16.01a3.749,3.749,0,0,1-2.455,2.455H7.366A3.749,3.749,0,0,1,4.911,24.831Z" transform="translate(-3 -3)"/></svg>