<svg xmlns="http://www.w3.org/2000/svg" width="36" height="36" viewBox="0 0 36 36"><defs><style>.a{fill:#f4f7fc;opacity:0;}.b{fill-rule:evenodd;}</style></defs><circle class="a" cx="18" cy="18" r="18"/><path class="b" d="M965.224-698.777l4.49,4.49a.8.8,0,0,1,0,1.132.8.8,0,0,1-1.132,0l-5.056-5.056a.8.8,0,0,1,0-1.132l5.056-5.057a.8.8,0,0,1,1.132,0,.8.8,0,0,1,0,1.132Zm15.266-.8H970.206a.8.8,0,0,0-.8.8.8.8,0,0,0,.8.8h10.284a.8.8,0,0,0,.8-.8A.8.8,0,0,0,980.491-699.578Z" transform="translate(-954.291 716.634)"/></svg>