<svg xmlns="http://www.w3.org/2000/svg" width="71.503" height="58.502" viewBox="0 0 71.503 58.502"><defs><style>.a,.b{fill:#7e84a3;}.b{fill-rule:evenodd;}</style></defs><path class="a" d="M5,13.5V7h6.5v6.5Z" transform="translate(8.001 6.001)"/><path class="a" d="M9,13.5H41.5V7H9Z" transform="translate(17.001 6.001)"/><path class="a" d="M5,15v6.5h6.5V15Z" transform="translate(8.001 24.002)"/><path class="a" d="M41.5,21.5H9V15H41.5Z" transform="translate(17.001 24.002)"/><path class="b" d="M1,12.75A9.75,9.75,0,0,1,10.75,3h52a9.75,9.75,0,0,1,9.75,9.75v39a9.75,9.75,0,0,1-9.75,9.75h-52A9.75,9.75,0,0,1,1,51.752ZM10.75,9.5h52A3.25,3.25,0,0,1,66,12.75V29H7.5V12.75A3.25,3.25,0,0,1,10.75,9.5ZM7.5,35.5V51.752A3.25,3.25,0,0,0,10.75,55h52A3.25,3.25,0,0,0,66,51.752V35.5Z" transform="translate(-1 -3)"/></svg>