<svg xmlns="http://www.w3.org/2000/svg" width="289.532" height="105.616" viewBox="0 0 289.532 105.616"><defs><style>.a{fill:#d7001d;}.b{fill:#efa206;}.c{fill:#df5617;}.d{fill:#fff;}.e{fill:#1d236b;}.f{isolation:isolate;}</style></defs><g transform="translate(-399 -254)"><g transform="translate(399 254)"><path class="a" d="M140.89,472.714l-37.345,15.466L66.206,472.714l37.339-14.272Z" transform="translate(-50.734 -382.565)"/><path class="a" d="M70.34,395.792,56.068,433.13,40.6,395.792l15.472-37.345Z" transform="translate(-40.596 -342.981)"/><path class="b" d="M103.546,443.326,66.21,457.6,80.48,420.26Z" transform="translate(-50.735 -367.45)"/><path class="c" d="M195.94,395.792,180.474,433.13,166.2,395.792l14.272-37.345Z" transform="translate(-90.318 -342.981)"/><path class="c" d="M140.89,348.313l-37.345,14.272L66.206,348.313l37.339-15.466Z" transform="translate(-50.734 -332.847)"/><path class="d" d="M135.968,405.142,112.9,428.208,89.83,405.142,112.9,382.07Z" transform="translate(-60.086 -352.332)"/><path class="b" d="M103.546,372.72,80.48,395.792,66.21,358.45Z" transform="translate(-50.735 -342.982)"/><path class="e" d="M165.358,358.45l-14.276,37.342L128.01,372.72Z" transform="translate(-75.199 -342.982)"/><path class="b" d="M165.358,457.6,128.01,443.326l23.072-23.066Z" transform="translate(-75.199 -367.45)"/></g><g class="f" transform="translate(527.486 274.4)"><path class="d" d="M422.449,667.194H411.235L386.951,628.3v38.862H374.606v-61.52h11.457c4.058,6.445,8.169,12.968,12.274,19.495,4.062,6.46,8.118,12.923,12.566,19.251-.409-12.865-.818-25.729-1.232-38.745h12.778Z" transform="translate(-374.606 -603.99)"/><path class="d" d="M477.031,653.286l10.919-7.568a18.06,18.06,0,0,0,10.639,8.342,22.968,22.968,0,0,0,12.388.46,10.5,10.5,0,0,0,3.5-1.691c3.627-2.737,3.1-7.915-1.149-9.4-4.016-1.407-8.267-2.137-12.4-3.219-3.45-.9-7.029-1.53-10.293-2.9-13.378-5.6-12.7-23.118-2.5-30.054,5.462-3.712,11.555-4.832,17.979-4.71,10.371.2,18.5,4.6,24.52,13.269l-10.567,7.862a47.942,47.942,0,0,0-4.728-5.313c-4.929-4.149-10.614-4.843-16.628-2.845-2.955.981-4.539,3.1-4.47,5.456.065,2.2,1.491,3.843,4.652,4.671,5.549,1.453,11.233,2.434,16.705,4.115a32.859,32.859,0,0,1,9.42,4.592c8.449,6.082,7.237,20.069.3,26.067a28.257,28.257,0,0,1-16.083,6.662c-7.492.759-14.81.031-21.61-3.555A24.338,24.338,0,0,1,477.031,653.286Z" transform="translate(-422.492 -602.536)"/><path class="d" d="M632.873,629.577V641.1H605.7v14.166h31.945v11.912H592.758V605.634h42.775v11.7H605.722v12.248Z" transform="translate(-476.598 -603.985)"/></g></g></svg>