<svg xmlns="http://www.w3.org/2000/svg" width="102.094" height="34.591" viewBox="0 0 102.094 34.591"><defs><style>.a{fill:#e22028;}.b{fill:#efb31c;}.c{fill:#e66e25;}.d{fill:none;}.e{fill:#392e7d;}</style></defs><path class="a" d="M90.666,463.117l-12.231,5.065-12.229-5.065,12.229-4.674Z" transform="translate(-61.139 -433.591)"/><path class="a" d="M50.338,370.678l-4.674,12.229L40.6,370.678l5.067-12.231Z" transform="translate(-40.596 -353.382)"/><path class="b" d="M78.435,427.816,66.206,432.49l4.674-12.229Z" transform="translate(-61.139 -402.965)"/><path class="c" d="M175.941,370.678l-5.065,12.229L166.2,370.678l4.674-12.231Z" transform="translate(-141.349 -353.382)"/><path class="c" d="M90.666,337.912l-12.231,4.674-12.229-4.674,12.229-5.065Z" transform="translate(-61.139 -332.847)"/><path class="d" d="M104.941,389.627l-7.557,7.555-7.555-7.555,7.555-7.557Z" transform="translate(-80.088 -372.331)"/><path class="b" d="M78.435,363.121l-7.555,7.557-4.674-12.231Z" transform="translate(-61.139 -353.382)"/><path class="e" d="M140.242,358.447l-4.674,12.231-7.557-7.557Z" transform="translate(-110.714 -353.382)"/><path class="b" d="M140.242,432.49l-12.231-4.674,7.557-7.555Z" transform="translate(-110.714 -402.965)"/><g transform="translate(41.838 4.765)"><path class="e" d="M392.507,628.674h-4.2l-9.086-14.551v14.54h-4.619V605.646h4.287c1.518,2.411,3.056,4.852,4.592,7.294,1.52,2.417,3.037,4.835,4.7,7.2l-.461-14.5h4.781Z" transform="translate(-374.606 -605.026)"/><path class="e" d="M477.031,621.525l4.086-2.832a6.757,6.757,0,0,0,3.981,3.121,8.594,8.594,0,0,0,4.635.172,3.929,3.929,0,0,0,1.31-.633,1.963,1.963,0,0,0-.43-3.519c-1.5-.526-3.093-.8-4.639-1.2a28.819,28.819,0,0,1-3.851-1.083c-5.006-2.094-4.753-8.65-.934-11.245a11.177,11.177,0,0,1,6.727-1.762,10.851,10.851,0,0,1,9.174,4.965l-3.954,2.942a17.952,17.952,0,0,0-1.769-1.988,6.124,6.124,0,0,0-6.221-1.064,2.144,2.144,0,0,0-1.673,2.041c.024.822.558,1.438,1.741,1.748,2.076.544,4.2.911,6.25,1.54a12.294,12.294,0,0,1,3.524,1.718c3.161,2.276,2.708,7.509.111,9.753a10.572,10.572,0,0,1-6.018,2.493,13.905,13.905,0,0,1-8.085-1.33A9.106,9.106,0,0,1,477.031,621.525Z" transform="translate(-456.625 -602.536)"/><path class="e" d="M607.767,614.592v4.31H597.6v5.3h11.952v4.457H592.758V605.634h16v4.376H597.609v4.583Z" transform="translate(-549.296 -605.017)"/></g></svg>