<svg xmlns="http://www.w3.org/2000/svg" width="77.963" height="58.473" viewBox="0 0 77.963 58.473"><defs><style>.a,.b{fill:#7e84a3;}.b{fill-rule:evenodd;}</style></defs><path class="a" d="M9.5,6.248A3.248,3.248,0,1,1,6.248,3,3.248,3.248,0,0,1,9.5,6.248Z" transform="translate(6.745 -3)"/><path class="a" d="M13.5,6.248A3.248,3.248,0,1,1,10.248,3,3.248,3.248,0,0,1,13.5,6.248Z" transform="translate(15.739 -3)"/><path class="a" d="M14.248,9.5A3.248,3.248,0,1,0,11,6.248,3.248,3.248,0,0,0,14.248,9.5Z" transform="translate(24.733 -3)"/><path class="a" d="M21.5,6.248A3.248,3.248,0,1,1,18.248,3,3.248,3.248,0,0,1,21.5,6.248Z" transform="translate(33.727 -3)"/><path class="a" d="M22.248,9.5A3.248,3.248,0,1,0,19,6.248,3.248,3.248,0,0,0,22.248,9.5Z" transform="translate(42.721 -3)"/><path class="a" d="M9.5,22.248A3.248,3.248,0,1,1,6.248,19,3.248,3.248,0,0,1,9.5,22.248Z" transform="translate(6.745 32.976)"/><path class="a" d="M13.5,22.248A3.248,3.248,0,1,1,10.248,19,3.248,3.248,0,0,1,13.5,22.248Z" transform="translate(15.739 32.976)"/><path class="a" d="M14.248,25.5A3.248,3.248,0,1,0,11,22.248,3.248,3.248,0,0,0,14.248,25.5Z" transform="translate(24.733 32.976)"/><path class="a" d="M21.5,22.248A3.248,3.248,0,1,1,18.248,19,3.248,3.248,0,0,1,21.5,22.248Z" transform="translate(33.727 32.976)"/><path class="a" d="M22.248,25.5A3.248,3.248,0,1,0,19,22.248,3.248,3.248,0,0,0,22.248,25.5Z" transform="translate(42.721 32.976)"/><path class="a" d="M7.248,16.5A3.248,3.248,0,1,0,4,13.248,3.248,3.248,0,0,0,7.248,16.5Z" transform="translate(8.994 12.739)"/><path class="a" d="M24.5,15.248A3.248,3.248,0,1,1,21.248,12,3.248,3.248,0,0,1,24.5,15.248Z" transform="translate(40.473 17.236)"/><path class="b" d="M0,15.745A9.745,9.745,0,0,1,9.745,6H68.218a9.745,9.745,0,0,1,9.745,9.745V35.236a9.745,9.745,0,0,1-9.745,9.745H9.745A9.745,9.745,0,0,1,0,35.236ZM9.745,12.5H68.218a3.248,3.248,0,0,1,3.248,3.248V35.236a3.248,3.248,0,0,1-3.248,3.248H9.745A3.248,3.248,0,0,1,6.5,35.236V15.745A3.248,3.248,0,0,1,9.745,12.5Z" transform="translate(0 3.745)"/></svg>