<svg xmlns="http://www.w3.org/2000/svg" width="64.97" height="58.473" viewBox="0 0 64.97 58.473"><defs><style>.a,.b{fill:#7e84a3;}.a{fill-rule:evenodd;}</style></defs><path class="a" d="M16.994,28.988A12.994,12.994,0,1,0,4,15.994,12.994,12.994,0,0,0,16.994,28.988Zm0-6.5a6.5,6.5,0,1,0-6.5-6.5A6.5,6.5,0,0,0,16.994,22.491Z" transform="translate(2.497 -3)"/><path class="b" d="M31.236,18.5a3.248,3.248,0,0,1,3.248,3.248V41.236h6.5V21.745A9.745,9.745,0,0,0,31.236,12H11.745A9.745,9.745,0,0,0,2,21.745V41.236H8.5V21.745A3.248,3.248,0,0,1,11.745,18.5Z" transform="translate(-2 17.236)"/><path class="b" d="M22.5,7h6.5v6.5h6.5v6.5h-6.5v6.5H22.5v-6.5H16V13.5h6.5Z" transform="translate(29.479 5.994)"/></svg>